<?xml version="1.0" encoding="UTF-8"?>
<svg xmlns="http://www.w3.org/2000/svg" width="557" height="366" viewBox="0 0 557 366" fill="none">
  <g opacity="0.5">
    <path d="M414.52 54.7385C412.655 51.847 408.798 51.0107 405.903 52.8728C403.008 54.735 402.17 58.5879 404.035 61.4795C405.899 64.371 409.757 65.2073 412.652 63.3452C415.547 61.483 416.384 57.6301 414.52 54.7385Z" fill="#7DBC3F"></path>
  </g>
  <g opacity="0.5">
    <path d="M526.571 132.928C513.503 114.431 494.38 97.847 469.739 83.6361C452.236 73.5426 432.483 64.9967 411.027 58.2379L410.258 57.9949L409.664 58.8205C409.535 58.9992 409.406 59.1744 409.284 59.3566L408.426 60.6005L409.868 61.0544C431.063 67.7345 450.537 76.1517 467.749 86.0772C523.641 118.309 550.067 162.747 540.252 208.003L539.991 209.215L543.587 209.601L543.798 208.622C545.183 202.245 545.866 195.737 545.831 189.267C545.72 169.813 539.243 150.859 526.575 132.928H526.571Z" fill="url(#paint0_linear_3626_47680)"></path>
    <path d="M413.75 55.2427C411.886 52.3512 408.028 51.5148 405.133 53.377C402.238 55.2391 401.401 59.0921 403.265 61.9836C405.13 64.8751 408.987 65.7115 411.882 63.8493C414.777 61.9872 415.615 58.1342 413.75 55.2427Z" fill="#7DBC3F"></path>
  </g>
  <path d="M351.407 28.4755C307.657 3.59564 270.054 12.4203 253.98 46.2964C246.315 38.0007 237.805 30.9667 228.849 25.8735C195.082 6.67301 167.625 22.0849 167.518 60.2822C167.518 61.5153 167.55 62.7698 167.596 64.0172L163.606 61.7476C132.513 44.0661 107.217 58.2664 107.117 93.4542C107.017 128.656 132.148 171.532 163.241 189.21L443.391 348.515C474.494 366.204 499.79 352.004 499.894 316.801C499.984 285.827 480.52 248.906 454.652 228.451C455.826 222.053 456.466 215.148 456.488 207.721C456.677 141.831 409.635 61.5796 351.414 28.472L351.407 28.4755Z" fill="url(#paint1_linear_3626_47680)"></path>
  <path d="M211.11 35.7455C218.46 39.9237 228.938 48.2051 236.284 55.9039C238.628 50.514 245.427 41.432 247.539 39.7379C241.913 34.348 234.85 29.0511 228.87 25.6484C212.381 16.2698 197.405 15.1725 186.376 20.9412L186.383 20.9305L168.784 30.8131C168.784 30.8131 166.652 32.0319 168.541 31.0383C179.577 25.2446 194.585 26.349 211.107 35.7455H211.11Z" fill="url(#paint2_linear_3626_47680)"></path>
  <path d="M149.926 73.7962C149.926 73.7962 149.046 64.0387 151.275 56.3613C151.311 56.2362 145.764 54.6886 143.445 54.2847C136.11 53.3125 129.504 54.442 124.004 57.4657L123.997 57.4479L105.675 67.8309C105.675 67.8309 104.788 68.2741 106.67 67.2876C115.541 62.6304 128.244 61.1543 149.933 73.7962H149.926Z" fill="url(#paint3_linear_3626_47680)"></path>
  <path d="M333.672 38.3475C391.89 71.4551 438.935 151.706 438.746 217.596C438.724 224.823 438.112 231.546 436.999 237.801L454.749 227.822C455.865 221.532 456.498 214.776 456.52 207.506C456.71 141.616 409.667 61.3652 351.435 28.2504C323.731 12.499 298.496 10.2758 279.623 19.3578H279.605L279.416 19.4615C277.401 20.4408 275.465 21.5524 273.601 22.7891L262.647 29.0617C281.43 20.4158 306.354 22.8069 333.675 38.3439L333.672 38.3475Z" fill="url(#paint4_linear_3626_47680)"></path>
  <path d="M254.925 33.4829L254.077 33.969C254.195 33.919 254.316 33.8725 254.438 33.8225C254.599 33.7081 254.764 33.5937 254.928 33.4829H254.925Z" fill="url(#paint5_linear_3626_47680)"></path>
  <g opacity="0.9">
    <path d="M333.672 38.3474C289.922 13.4675 252.32 22.2921 236.245 56.1682C228.58 47.8726 220.071 40.8386 211.114 35.7454C177.348 16.5448 149.89 31.9567 149.783 70.154C149.783 71.3871 149.815 72.6416 149.862 73.889L145.872 71.6194C114.779 53.9379 89.4826 68.1382 89.3824 103.326C89.2822 138.528 114.414 181.404 145.507 199.082L425.656 358.387C456.76 376.076 482.056 361.875 482.159 326.673C482.249 295.699 462.786 258.778 436.917 238.323C438.091 231.925 438.731 225.02 438.753 217.593C438.943 151.703 391.9 71.4514 333.679 38.3438L333.672 38.3474Z" fill="url(#paint6_linear_3626_47680)"></path>
  </g>
  <path d="M324.042 87.1029L300.575 73.571C287.868 66.244 277.573 72.1092 278.546 87.0243C279.39 99.9521 288.573 115.06 299.77 121.519L307.904 126.208C310.054 127.448 312.029 126.944 312.445 124.796C313.006 121.905 310.845 117.83 308.104 116.25L300.289 111.743C293.626 107.901 287.793 98.8548 287.395 91.0881C286.962 82.6387 292.738 79.1253 299.877 83.2428L322.128 96.0205C322.894 96.4601 323.566 96.2742 323.788 95.5737L325.477 90.1231C325.767 89.1938 325.044 87.6819 324.039 87.0993" fill="#67BF1B"></path>
  <path d="M308.376 97.1536L300.196 92.4357C298.077 91.2133 296.141 91.7244 295.712 93.8296C295.118 96.7247 297.286 100.831 300.042 102.422L307.907 106.958C314.538 110.782 320.321 119.778 320.743 127.52C321.205 136.016 315.422 139.554 308.269 135.426L285.76 122.448C285.127 122.084 284.572 122.234 284.39 122.82L282.608 128.589C282.332 129.486 283.03 130.951 284 131.512L307.671 145.162C319.619 152.053 329.821 146.853 329.66 133.221C329.503 119.971 320.027 103.873 308.376 97.1572" fill="#67BF1B"></path>
  <path d="M73.6193 102.979L72.9108 102.34L72.17 102.94C60.4327 112.437 50.6385 122.78 43.0594 133.682C30.5921 151.613 24.3263 170.571 24.4336 190.029C24.5481 209.494 31.0251 228.451 43.6892 246.368C47.1388 251.254 51.0858 256.087 55.4158 260.733L55.9132 261.266L59.3163 260.075L58.1569 258.828C36.7649 235.835 26.4196 209.84 28.2339 183.656C30.1949 155.363 46.1369 128.277 74.3314 105.331L75.3656 104.491L74.3529 103.623C74.106 103.412 73.8626 103.197 73.6229 102.983L73.6193 102.979Z" fill="url(#paint7_linear_3626_47680)"></path>
  <path d="M63.6032 258.439C61.7389 255.547 57.8813 254.711 54.9863 256.573C52.0914 258.435 51.254 262.288 53.1184 265.179C54.9828 268.071 58.8403 268.907 61.7353 267.045C64.6302 265.183 65.4676 261.33 63.6032 258.439Z" fill="#7DBC3F"></path>
  <path d="M503.82 262.86C501.955 259.968 498.098 259.132 495.203 260.994C492.308 262.856 491.47 266.709 493.335 269.601C495.199 272.492 499.057 273.329 501.952 271.467C504.847 269.604 505.684 265.751 503.82 262.86Z" fill="#7DBC3F"></path>
  <path d="M63.274 257.656C61.4096 254.764 57.5521 253.928 54.6571 255.79C51.7621 257.652 50.9248 261.505 52.7892 264.397C54.6535 267.288 58.5111 268.125 61.4061 266.262C64.301 264.4 65.1384 260.547 63.274 257.656Z" fill="url(#paint8_linear_3626_47680)"></path>
  <path d="M454.681 228.237C454.706 228.101 454.723 227.958 454.745 227.822L436.996 237.801C436.964 237.976 436.939 238.155 436.906 238.327C462.775 258.782 482.238 295.703 482.149 326.677C482.102 342.979 476.649 354.77 467.724 360.982L481.587 353.133C492.798 347.843 499.858 335.144 499.912 316.594C500.001 285.606 480.553 248.706 454.684 228.237H454.681Z" fill="url(#paint9_linear_3626_47680)"></path>
  <mask id="mask0_3626_47680" style="mask-type:luminance" maskUnits="userSpaceOnUse" x="148" y="115" width="49" height="83">
    <path d="M148.817 169.706L148.971 115.221L196.442 142.596L196.288 197.08L148.817 169.706Z" fill="white"></path>
  </mask>
  <g mask="url(#mask0_3626_47680)">
    <mask id="mask1_3626_47680" style="mask-type:luminance" maskUnits="userSpaceOnUse" x="150" y="120" width="43" height="69">
      <path d="M154.324 120.718L188.938 140.68C190.749 141.724 192.212 144.254 192.209 146.334L192.094 186.065C192.087 188.142 190.613 188.981 188.802 187.934L154.188 167.972C152.377 166.929 150.914 164.395 150.917 162.318L151.032 122.587C151.039 120.507 152.513 119.671 154.324 120.718Z" fill="white"></path>
    </mask>
    <g mask="url(#mask1_3626_47680)">
      <mask id="mask2_3626_47680" style="mask-type:luminance" maskUnits="userSpaceOnUse" x="150" y="120" width="43" height="69">
        <path d="M170.849 156.803L177.376 153.089C177.573 152.982 177.824 153.021 178.078 153.164C178.335 153.314 178.597 153.579 178.79 153.919C179.169 154.583 179.166 155.295 178.786 155.523L171.551 159.641C171.354 159.752 171.1 159.716 170.842 159.569C170.585 159.423 170.33 159.162 170.137 158.826L165.825 151.363C165.442 150.684 165.453 149.965 165.854 149.755C166.047 149.651 166.301 149.69 166.552 149.833C166.802 149.976 167.053 150.23 167.246 150.555L170.853 156.799M171.608 140.462C170.989 140.508 169.325 140.515 166.43 139.693C163.739 138.932 161.531 138.096 160.458 137.663C160.407 137.642 160.368 137.67 160.368 137.731C160.415 143.611 161.381 152.396 165.729 160.885C168.427 166.146 171.168 168.834 171.522 169.091H171.529C171.801 169.198 182.554 172.215 182.826 150.677C182.826 150.62 182.787 150.548 182.737 150.509C181.656 149.694 179.438 147.975 176.772 145.651C173.887 143.142 172.227 141.219 171.612 140.458M171.476 170.292C170.763 169.841 167.779 166.757 164.974 161.321C160.372 152.407 159.348 143.242 159.305 137.131C159.302 136.459 159.728 136.126 160.304 136.351C161.363 136.777 163.528 137.595 166.176 138.349C169.006 139.154 170.577 139.129 171.125 139.082C171.279 139.068 171.447 139.118 171.619 139.214C171.79 139.311 171.959 139.461 172.109 139.65C172.653 140.322 174.22 142.156 177.044 144.615C179.667 146.895 181.846 148.586 182.909 149.386C183.481 149.822 183.907 150.645 183.9 151.309C183.821 157.55 182.751 165.717 178.11 169.162C175.337 171.221 172.352 170.756 171.579 170.353L171.565 170.345L171.476 170.295M188.949 140.673L154.335 120.711C152.524 119.667 151.05 120.503 151.043 122.58L150.928 162.311C150.921 164.387 152.388 166.921 154.199 167.965L188.813 187.927C190.624 188.971 192.098 188.134 192.105 186.058L192.22 146.327C192.227 144.247 190.76 141.716 188.949 140.673Z" fill="white"></path>
      </mask>
      <g mask="url(#mask2_3626_47680)">
        <path d="M192.148 189.918L150.849 166.103L150.985 118.706L192.284 142.521L192.148 189.918Z" fill="url(#paint10_linear_3626_47680)"></path>
      </g>
    </g>
    <path d="M171.518 169.098C171.16 168.841 168.423 166.157 165.725 160.892C161.377 152.403 160.411 143.614 160.364 137.738C160.364 137.678 160.404 137.649 160.454 137.67C161.531 138.103 163.735 138.939 166.426 139.701C169.318 140.523 170.985 140.516 171.604 140.469C172.22 141.23 173.88 143.153 176.764 145.662C179.43 147.982 181.649 149.701 182.73 150.52C182.78 150.559 182.819 150.63 182.819 150.688C182.547 172.222 171.794 169.206 171.522 169.105H171.515M171.604 139.225C171.432 139.129 171.264 139.079 171.11 139.093C170.566 139.139 168.992 139.161 166.161 138.36C163.513 137.61 161.345 136.788 160.289 136.362C159.717 136.137 159.287 136.47 159.291 137.142C159.334 143.257 160.357 152.418 164.959 161.332C167.765 166.768 170.749 169.852 171.461 170.303L171.551 170.353L171.565 170.36C172.338 170.76 175.326 171.225 178.096 169.17C182.737 165.724 183.807 157.561 183.885 151.317C183.893 150.652 183.467 149.83 182.894 149.394C181.831 148.593 179.652 146.903 177.029 144.622C174.202 142.163 172.635 140.33 172.094 139.658C171.944 139.468 171.772 139.322 171.604 139.222" fill="white"></path>
    <path d="M178.078 153.168C177.824 153.022 177.573 152.986 177.376 153.093L170.849 156.807L167.242 150.563C167.049 150.234 166.798 149.984 166.548 149.841C166.297 149.698 166.047 149.658 165.85 149.762C165.453 149.973 165.439 150.695 165.821 151.37L170.133 158.833C170.327 159.169 170.584 159.43 170.838 159.577C171.092 159.723 171.35 159.759 171.547 159.648L178.783 155.531C179.162 155.302 179.165 154.591 178.786 153.926C178.593 153.583 178.332 153.322 178.074 153.172" fill="white"></path>
  </g>
  <mask id="mask3_3626_47680" style="mask-type:luminance" maskUnits="userSpaceOnUse" x="259" y="178" width="49" height="83">
    <path d="M259.398 233.008L259.552 178.816L307.023 206.191L306.869 260.383L259.398 233.008Z" fill="white"></path>
  </mask>
  <g mask="url(#mask3_3626_47680)">
    <mask id="mask4_3626_47680" style="mask-type:luminance" maskUnits="userSpaceOnUse" x="261" y="183" width="42" height="69">
      <path d="M265.012 184.364L299.569 204.293C301.376 205.337 302.84 207.864 302.833 209.941L302.722 249.6C302.715 251.676 301.244 252.513 299.437 251.469L264.88 231.539C263.073 230.496 261.609 227.972 261.616 225.892L261.727 186.233C261.734 184.16 263.205 183.32 265.012 184.364Z" fill="white"></path>
    </mask>
    <g mask="url(#mask4_3626_47680)">
      <mask id="mask5_3626_47680" style="mask-type:luminance" maskUnits="userSpaceOnUse" x="261" y="183" width="42" height="69">
        <path d="M275.615 222.282C275.318 222.111 275.078 221.696 275.078 221.357C275.078 221.017 275.322 220.881 275.619 221.053L289.55 229.088C289.847 229.259 290.086 229.674 290.086 230.01C290.086 230.346 289.843 230.489 289.546 230.317L275.615 222.282ZM275.658 207.017C275.361 206.845 275.121 206.431 275.121 206.095C275.121 205.759 275.365 205.616 275.662 205.788L289.593 213.822C289.89 213.994 290.129 214.408 290.129 214.748C290.129 215.088 289.886 215.223 289.589 215.052L275.658 207.017ZM282.192 208.043C281.899 207.871 281.659 207.46 281.659 207.121C281.659 206.781 281.903 206.642 282.196 206.813L289.231 210.87L289.242 206.627C289.242 206.384 289.371 206.234 289.568 206.252C289.636 206.259 289.707 206.284 289.779 206.324C289.915 206.402 290.044 206.535 290.147 206.706L299.448 222.175C299.555 222.354 299.616 222.55 299.616 222.722C299.616 222.894 299.555 223.015 299.444 223.072L290.086 227.779C289.983 227.829 289.85 227.812 289.718 227.737C289.646 227.694 289.575 227.636 289.507 227.565C289.31 227.354 289.185 227.057 289.185 226.811L289.195 222.568L282.16 218.512C282.117 218.487 282.078 218.458 282.042 218.426L275.286 214.53C274.993 214.358 274.753 213.947 274.753 213.608L274.764 210.173L266.723 214.219L274.713 227.504L274.724 224.073C274.724 223.733 274.968 223.594 275.261 223.766L282.837 228.133C283.13 228.305 283.37 228.716 283.37 229.059C283.37 229.402 283.126 229.534 282.833 229.363L275.798 225.306L275.787 229.549C275.787 229.795 275.658 229.942 275.461 229.924C275.393 229.917 275.322 229.895 275.25 229.852C275.118 229.777 274.985 229.642 274.885 229.474L265.581 214.001C265.474 213.822 265.413 213.626 265.413 213.458C265.413 213.29 265.477 213.161 265.585 213.107L274.946 208.4C275.046 208.35 275.179 208.368 275.311 208.443C275.383 208.486 275.454 208.543 275.526 208.618C275.723 208.829 275.848 209.126 275.848 209.369L275.837 213.611L282.872 217.668C282.915 217.693 282.955 217.722 282.99 217.754L289.746 221.65C290.04 221.821 290.28 222.232 290.28 222.575L290.269 226.01L298.31 221.968L290.315 208.679L290.305 212.114C290.305 212.453 290.061 212.589 289.768 212.418L282.192 208.05M299.569 204.301L265.012 184.371C263.205 183.327 261.734 184.167 261.727 186.24L261.616 225.899C261.609 227.976 263.073 230.503 264.88 231.547L299.437 251.476C301.244 252.52 302.715 251.684 302.722 249.607L302.833 209.948C302.84 207.875 301.376 205.344 299.569 204.301Z" fill="white"></path>
      </mask>
      <g mask="url(#mask5_3626_47680)">
        <path d="M302.79 253.467L261.552 229.688L261.688 182.369L302.922 206.148L302.79 253.467Z" fill="url(#paint11_linear_3626_47680)"></path>
      </g>
    </g>
    <path d="M275.304 208.439C275.171 208.364 275.039 208.343 274.939 208.396L265.578 213.104C265.47 213.157 265.409 213.282 265.406 213.454C265.402 213.626 265.467 213.819 265.574 213.997L274.878 229.47C274.978 229.638 275.111 229.774 275.243 229.849C275.315 229.892 275.386 229.913 275.454 229.92C275.651 229.938 275.78 229.792 275.78 229.545L275.791 225.302L282.826 229.359C283.119 229.531 283.363 229.391 283.363 229.055C283.363 228.719 283.123 228.301 282.829 228.13L275.254 223.762C274.96 223.59 274.717 223.73 274.717 224.069L274.706 227.501L266.716 214.215L274.756 210.169L274.746 213.604C274.746 213.944 274.985 214.355 275.279 214.526L282.035 218.422C281.799 218.222 281.62 217.875 281.623 217.586C281.623 217.246 281.867 217.107 282.16 217.278L282.98 217.75C282.94 217.718 282.901 217.689 282.862 217.664L275.826 213.608L275.837 209.365C275.837 209.122 275.712 208.825 275.515 208.615C275.447 208.539 275.375 208.482 275.3 208.439" fill="white"></path>
    <path d="M289.782 206.323C289.711 206.284 289.639 206.259 289.571 206.252C289.374 206.234 289.245 206.384 289.245 206.627L289.235 210.87L282.2 206.813C281.906 206.642 281.663 206.781 281.663 207.12C281.663 207.46 281.902 207.871 282.196 208.043L289.772 212.41C290.065 212.582 290.308 212.442 290.308 212.106L290.319 208.672L298.313 221.96L290.272 226.003L290.283 222.568C290.283 222.229 290.043 221.814 289.75 221.642L282.994 217.746L282.174 217.275C281.881 217.103 281.638 217.243 281.638 217.582C281.638 217.872 281.813 218.218 282.049 218.418C282.089 218.451 282.128 218.479 282.167 218.504L289.203 222.561L289.192 226.803C289.192 227.05 289.317 227.347 289.514 227.558C289.582 227.633 289.653 227.686 289.725 227.729C289.857 227.804 289.99 227.826 290.094 227.772L299.451 223.065C299.559 223.008 299.619 222.883 299.623 222.715C299.627 222.547 299.562 222.346 299.455 222.168L290.154 206.699C290.051 206.531 289.918 206.395 289.786 206.316" fill="white"></path>
    <path d="M289.593 213.822L275.662 205.787C275.365 205.616 275.125 205.752 275.121 206.095C275.118 206.438 275.361 206.845 275.658 207.017L289.589 215.052C289.886 215.223 290.126 215.087 290.129 214.748C290.133 214.408 289.89 213.994 289.593 213.822Z" fill="white"></path>
    <path d="M289.55 229.088L275.619 221.053C275.322 220.881 275.082 221.017 275.078 221.357C275.075 221.696 275.318 222.111 275.615 222.282L289.546 230.317C289.843 230.489 290.083 230.349 290.086 230.01C290.09 229.67 289.847 229.259 289.55 229.088Z" fill="white"></path>
  </g>
  <mask id="mask6_3626_47680" style="mask-type:luminance" maskUnits="userSpaceOnUse" x="204" y="147" width="48" height="83">
    <path d="M204.243 202.024L204.397 147.542L251.869 174.917L251.715 229.398L204.243 202.024Z" fill="white"></path>
  </mask>
  <g mask="url(#mask6_3626_47680)">
    <mask id="mask7_3626_47680" style="mask-type:luminance" maskUnits="userSpaceOnUse" x="206" y="152" width="42" height="69">
      <path d="M209.936 153.222L244.554 173.183C246.365 174.227 247.829 176.761 247.821 178.838L247.707 218.565C247.7 220.645 246.225 221.485 244.418 220.441L209.8 200.479C207.99 199.436 206.526 196.902 206.533 194.825L206.648 155.098C206.655 153.018 208.126 152.178 209.936 153.222Z" fill="white"></path>
    </mask>
    <g mask="url(#mask7_3626_47680)">
      <mask id="mask8_3626_47680" style="mask-type:luminance" maskUnits="userSpaceOnUse" x="206" y="152" width="42" height="69">
        <path d="M227.256 173.87C225.288 172.733 223.681 173.648 223.674 175.907L223.66 180.446L230.799 184.564L230.813 180.024C230.82 177.765 229.224 175.006 227.256 173.87ZM226.483 195.887C226.218 195.733 226.004 195.365 226.004 195.061L226.011 192.28C225.209 191.312 224.683 189.993 224.776 188.895C224.88 187.612 225.846 187.091 227.024 187.684C227.074 187.709 227.127 187.737 227.177 187.766C228.505 188.531 229.575 190.386 229.571 191.909C229.571 192.952 229.06 193.571 228.312 193.606L228.305 196.387C228.305 196.691 228.09 196.812 227.822 196.662L226.483 195.89M223.13 181.372C222.837 181.2 222.586 180.782 222.59 180.446L222.604 175.292C222.611 172.354 224.701 171.168 227.263 172.644C229.822 174.12 231.897 177.708 231.89 180.646L231.876 185.8C231.876 186.14 231.633 186.276 231.339 186.104L223.134 181.372M227.27 169.97C223.42 167.751 220.275 169.538 220.264 173.955L220.25 179.091C220.25 179.431 220.006 179.567 219.713 179.395L216.299 177.426C215.955 177.226 215.673 177.39 215.673 177.783L215.626 194.171C215.626 194.564 215.902 195.047 216.249 195.247L238.031 207.806C238.374 208.003 238.657 207.842 238.657 207.449L238.704 191.061C238.704 190.668 238.424 190.182 238.081 189.986L234.746 188.063C234.452 187.891 234.213 187.48 234.213 187.141L234.227 182.004C234.241 177.587 231.117 172.186 227.267 169.963M216.242 196.469C215.308 195.929 214.549 194.618 214.553 193.545L214.599 177.158C214.599 176.086 215.365 175.65 216.299 176.189L219.176 177.848L219.19 173.326C219.205 168.23 222.83 166.167 227.27 168.726C231.711 171.285 235.311 177.515 235.297 182.612L235.283 187.133L238.077 188.745C239.011 189.285 239.77 190.597 239.766 191.669L239.72 208.057C239.72 209.129 238.954 209.565 238.02 209.025L216.238 196.466M244.551 173.169L209.933 153.207C208.122 152.164 206.648 153.004 206.644 155.084L206.53 194.811C206.523 196.891 207.986 199.421 209.797 200.465L244.415 220.427C246.225 221.471 247.7 220.631 247.703 218.55L247.818 178.823C247.825 176.743 246.358 174.209 244.551 173.169Z" fill="white"></path>
      </mask>
      <g mask="url(#mask8_3626_47680)">
        <path d="M247.761 222.414L206.462 198.6L206.594 151.199L247.893 175.014L247.761 222.414Z" fill="url(#paint12_linear_3626_47680)"></path>
      </g>
    </g>
    <path d="M223.66 180.446L223.674 175.907C223.681 173.648 225.288 172.733 227.256 173.87C229.224 175.006 230.82 177.766 230.813 180.025L230.799 184.564L223.66 180.446ZM227.26 172.64C224.697 171.164 222.611 172.351 222.601 175.289L222.586 180.443C222.586 180.782 222.833 181.2 223.127 181.368L231.332 186.101C231.625 186.272 231.869 186.133 231.869 185.797L231.883 180.643C231.89 177.705 229.818 174.116 227.256 172.64M216.242 195.247C215.898 195.047 215.619 194.564 215.619 194.171L215.666 177.783C215.666 177.39 215.945 177.23 216.292 177.426L219.706 179.395C219.999 179.567 220.242 179.428 220.242 179.092L220.257 173.956C220.271 169.538 223.413 167.747 227.263 169.97C231.114 172.193 234.234 177.59 234.223 182.012L234.209 187.148C234.209 187.487 234.449 187.898 234.742 188.07L238.077 189.993C238.421 190.189 238.7 190.676 238.7 191.069L238.653 207.456C238.653 207.85 238.371 208.01 238.027 207.814L216.245 195.254M227.27 168.748C222.83 166.185 219.205 168.251 219.19 173.348L219.176 177.869L216.299 176.211C215.365 175.671 214.603 176.107 214.599 177.179L214.553 193.567C214.553 194.639 215.308 195.951 216.242 196.491L238.024 209.05C238.958 209.59 239.72 209.154 239.723 208.082L239.77 191.694C239.77 190.622 239.015 189.31 238.081 188.771L235.286 187.159L235.3 182.637C235.315 177.54 231.711 171.311 227.274 168.752" fill="white"></path>
    <path d="M227.177 187.766C227.127 187.737 227.077 187.709 227.024 187.684C225.85 187.091 224.88 187.612 224.776 188.895C224.683 189.993 225.209 191.315 226.011 192.28L226.004 195.061C226.004 195.365 226.218 195.736 226.483 195.887L227.822 196.659C228.086 196.812 228.301 196.687 228.305 196.383L228.312 193.603C229.06 193.567 229.568 192.949 229.571 191.905C229.575 190.382 228.505 188.527 227.177 187.762" fill="white"></path>
  </g>
  <mask id="mask9_3626_47680" style="mask-type:luminance" maskUnits="userSpaceOnUse" x="376" y="244" width="48" height="83">
    <path d="M376.048 299.449L376.202 244.964L423.673 272.339L423.519 326.823L376.048 299.449Z" fill="white"></path>
  </mask>
  <g mask="url(#mask9_3626_47680)">
    <mask id="mask10_3626_47680" style="mask-type:luminance" maskUnits="userSpaceOnUse" x="378" y="250" width="42" height="69">
      <path d="M381.677 250.654L416.291 270.616C418.102 271.659 419.569 274.193 419.562 276.274L419.447 316.001C419.44 318.081 417.966 318.917 416.155 317.87L381.541 297.908C379.73 296.865 378.266 294.334 378.274 292.254L378.388 252.527C378.395 250.447 379.866 249.607 381.677 250.65" fill="white"></path>
    </mask>
    <g mask="url(#mask10_3626_47680)">
      <mask id="mask11_3626_47680" style="mask-type:luminance" maskUnits="userSpaceOnUse" x="378" y="250" width="42" height="69">
        <path d="M405.176 293.365L403.394 294.259L410.744 307.501C410.898 307.776 411.102 307.991 411.31 308.109C411.503 308.22 411.693 308.248 411.843 308.177L412.487 307.852C412.802 307.694 412.816 307.137 412.523 306.608L405.173 293.365M391.628 282.403C391.331 282.232 391.091 281.817 391.091 281.478L391.113 274.183C391.113 273.843 391.356 273.707 391.653 273.879C391.95 274.05 392.186 274.461 392.186 274.801L392.165 282.096C392.165 282.435 391.922 282.575 391.628 282.403ZM398.728 286.499C398.434 286.328 398.195 285.917 398.195 285.574L398.223 275.223C398.223 274.883 398.467 274.744 398.76 274.915C399.053 275.087 399.297 275.502 399.297 275.841L399.268 286.192C399.268 286.531 399.025 286.671 398.728 286.499ZM395.178 284.451C394.881 284.28 394.641 283.865 394.641 283.526L394.677 270.852C394.677 270.512 394.92 270.376 395.217 270.548C395.514 270.719 395.751 271.13 395.751 271.47L395.715 284.144C395.715 284.483 395.471 284.623 395.178 284.451ZM395.446 266.588C393.085 265.226 390.716 264.854 388.858 265.787C384.994 267.731 384.79 274.612 388.408 281.127C390.286 284.512 392.834 287.143 395.389 288.615C397.751 289.977 400.12 290.352 401.977 289.419C405.842 287.475 406.042 280.595 402.424 274.075C400.546 270.691 397.998 268.06 395.443 266.584M411.299 309.335C410.809 309.052 410.318 308.545 409.953 307.894L402.235 293.991C402.138 293.819 402.088 293.626 402.088 293.465C402.092 293.305 402.156 293.187 402.26 293.137L404.825 291.846C404.929 291.793 405.062 291.814 405.191 291.889C405.334 291.971 405.477 292.118 405.581 292.307L413.299 306.207C413.997 307.465 413.954 308.788 413.21 309.163L412.566 309.488C412.208 309.667 411.753 309.599 411.295 309.335M395.378 289.841C392.537 288.204 389.707 285.277 387.62 281.513C383.598 274.272 383.824 266.623 388.121 264.461C390.186 263.424 392.82 263.839 395.443 265.351C398.284 266.988 401.115 269.915 403.204 273.679C407.223 280.916 407.001 288.569 402.703 290.731C400.642 291.768 398.005 291.357 395.382 289.841M416.284 270.609L381.669 250.647C379.859 249.603 378.384 250.443 378.381 252.523L378.266 292.25C378.259 294.33 379.723 296.857 381.533 297.905L416.148 317.866C417.958 318.91 419.433 318.074 419.44 315.997L419.554 276.27C419.561 274.19 418.094 271.656 416.284 270.612" fill="white"></path>
      </mask>
      <g mask="url(#mask11_3626_47680)">
        <path d="M419.501 319.871L378.202 296.057L378.338 248.659L419.637 272.474L419.501 319.871Z" fill="url(#paint13_linear_3626_47680)"></path>
      </g>
    </g>
    <path d="M411.31 308.112C411.102 307.995 410.895 307.78 410.744 307.505L403.394 294.263L405.176 293.369L412.526 306.611C412.82 307.14 412.806 307.698 412.491 307.855L411.847 308.18C411.696 308.255 411.503 308.223 411.313 308.112M405.201 291.896C405.069 291.821 404.94 291.8 404.836 291.854L402.271 293.144C402.167 293.194 402.106 293.315 402.099 293.473C402.099 293.633 402.149 293.823 402.246 293.998L409.964 307.902C410.326 308.556 410.816 309.06 411.31 309.342C411.768 309.606 412.222 309.678 412.58 309.496L413.224 309.17C413.969 308.795 414.008 307.473 413.314 306.215L405.595 292.315C405.491 292.125 405.348 291.979 405.205 291.896" fill="white"></path>
    <path d="M395.393 288.619C392.838 287.146 390.29 284.516 388.411 281.131C384.793 274.615 384.997 267.735 388.862 265.791C390.719 264.858 393.085 265.229 395.45 266.591C398.005 268.064 400.553 270.698 402.432 274.083C406.049 280.598 405.845 287.479 401.984 289.427C400.127 290.359 397.758 289.984 395.396 288.622M395.457 265.365C392.831 263.85 390.197 263.435 388.136 264.475C383.838 266.634 383.616 274.286 387.635 281.528C389.721 285.291 392.555 288.218 395.393 289.855C398.019 291.371 400.653 291.782 402.714 290.745C407.012 288.587 407.234 280.934 403.215 273.693C401.125 269.929 398.295 267.002 395.454 265.365" fill="white"></path>
    <path d="M391.657 273.879C391.36 273.707 391.12 273.843 391.117 274.183L391.095 281.478C391.095 281.817 391.335 282.232 391.632 282.403C391.929 282.575 392.169 282.436 392.169 282.096L392.19 274.801C392.19 274.462 391.95 274.05 391.657 273.879Z" fill="white"></path>
    <path d="M395.221 270.548C394.924 270.376 394.684 270.512 394.681 270.852L394.645 283.526C394.645 283.865 394.885 284.28 395.182 284.451C395.479 284.623 395.719 284.484 395.719 284.144L395.754 271.47C395.754 271.13 395.515 270.719 395.221 270.548Z" fill="white"></path>
    <path d="M398.764 274.916C398.47 274.744 398.227 274.883 398.227 275.223L398.198 285.574C398.198 285.913 398.438 286.328 398.732 286.499C399.025 286.671 399.268 286.535 399.272 286.192L399.301 275.841C399.301 275.502 399.061 275.087 398.764 274.916Z" fill="white"></path>
  </g>
  <mask id="mask12_3626_47680" style="mask-type:luminance" maskUnits="userSpaceOnUse" x="317" y="211" width="49" height="82">
    <path d="M317.719 265.494L317.873 211.009L365.345 238.384L365.191 292.869L317.719 265.494Z" fill="white"></path>
  </mask>
  <g mask="url(#mask12_3626_47680)">
    <mask id="mask13_3626_47680" style="mask-type:luminance" maskUnits="userSpaceOnUse" x="319" y="216" width="43" height="69">
      <path d="M323.244 216.688L357.862 236.65C359.673 237.694 361.136 240.228 361.129 242.305L361.015 282.032C361.008 284.112 359.533 284.952 357.726 283.908L323.108 263.946C321.298 262.903 319.834 260.369 319.841 258.292L319.956 218.565C319.963 216.485 321.434 215.645 323.244 216.688Z" fill="white"></path>
    </mask>
    <g mask="url(#mask13_3626_47680)">
      <mask id="mask14_3626_47680" style="mask-type:luminance" maskUnits="userSpaceOnUse" x="319" y="216" width="43" height="69">
        <path d="M348.39 262.07C348.369 262.059 348.347 262.045 348.326 262.034C347.127 261.38 346.172 261.984 346.2 263.382C346.229 264.758 347.199 266.391 348.372 267.067C348.394 267.077 348.415 267.092 348.437 267.102C349.639 267.757 350.591 267.156 350.559 265.755C350.53 264.379 349.564 262.746 348.39 262.07ZM328.609 233.126L328.591 239.127C328.741 239.681 331.661 242.98 339.322 247.398C346.887 251.762 349.836 251.884 350.058 251.515L350.076 245.504C349.46 245.525 348.58 245.339 347.428 244.953C345.259 244.224 342.389 242.859 339.34 241.1C336.291 239.342 333.425 237.401 331.26 235.632C330.104 234.688 329.224 233.855 328.612 233.123M339.355 235.642C332.631 231.765 328.745 230.928 328.634 231.582C328.634 231.604 328.634 231.625 328.634 231.643C328.913 232.311 331.872 235.56 339.347 239.871C346.791 244.163 349.764 244.349 350.069 244.006C350.069 243.985 350.069 243.96 350.069 243.938C349.961 243.159 346.082 239.52 339.358 235.642M346.157 258.671H346.168C346.401 258.66 346.644 258.671 346.902 258.717H346.912L347.352 257.434H347.363C347.649 257.534 347.95 257.67 348.251 257.835C348.308 257.867 348.362 257.895 348.419 257.928C348.666 258.071 348.905 258.228 349.142 258.396L349.152 258.414L349.657 260.204L349.668 260.219C349.925 260.447 350.176 260.705 350.416 260.98L350.426 260.987L351.675 260.969L351.69 260.98C352.183 261.655 352.62 262.381 352.985 263.135V263.153L352.416 264.293V264.307C352.548 264.651 352.656 264.994 352.742 265.333L352.752 265.348L354.084 266.613L354.094 266.631C354.148 266.992 354.18 267.353 354.187 267.707C354.194 268.06 354.18 268.389 354.137 268.704L354.126 268.711L352.82 268.539H352.81C352.738 268.804 352.638 269.033 352.523 269.243V269.258L353.153 271.052V271.07C352.813 271.442 352.398 271.702 351.926 271.853L351.911 271.845L350.634 270.455H350.623C350.391 270.462 350.144 270.451 349.89 270.409H349.879L349.439 271.692H349.428C349.142 271.592 348.845 271.456 348.54 271.291C348.483 271.259 348.43 271.231 348.372 271.198C348.125 271.056 347.882 270.898 347.646 270.727L347.635 270.709L347.131 268.918L347.12 268.904C346.859 268.668 346.612 268.411 346.372 268.143L346.358 268.135L345.109 268.153L345.094 268.143C344.601 267.463 344.168 266.741 343.803 265.987V265.969L344.368 264.829V264.815C344.239 264.472 344.128 264.129 344.042 263.786L344.032 263.771L342.7 262.51L342.69 262.492C342.64 262.127 342.607 261.773 342.6 261.416C342.593 261.062 342.607 260.726 342.647 260.415L342.658 260.408L343.967 260.576H343.978C344.05 260.315 344.146 260.086 344.264 259.879V259.865L343.634 258.07V258.053C343.974 257.681 344.386 257.416 344.862 257.27H344.876L346.157 258.667M327.553 230.964C327.557 230.935 327.564 230.914 327.567 230.896C327.617 229.856 328.83 229.749 331.282 230.564C333.443 231.286 336.309 232.651 339.362 234.409C342.414 236.168 345.277 238.109 347.435 239.878C349.89 241.894 351.103 243.402 351.142 244.496C351.146 244.517 351.149 244.542 351.153 244.571L351.167 244.582C351.167 244.632 351.167 244.682 351.16 244.732C351.16 244.746 351.16 244.76 351.16 244.775L351.138 252.105L351.149 252.112C351.149 252.173 351.146 252.23 351.138 252.284L351.117 259.572L350.881 259.436L351.117 259.625L351.106 259.682L350.043 258.953L350.061 253.031C349.446 253.052 348.566 252.867 347.413 252.48C345.245 251.751 342.375 250.386 339.326 248.628C336.277 246.869 333.411 244.928 331.246 243.159C330.09 242.215 329.21 241.383 328.598 240.65L328.58 246.655C328.78 247.505 332.581 251.044 339.312 254.925C340.274 255.479 341.23 256.001 342.157 256.476L342.21 257.738C341.266 257.256 340.292 256.723 339.308 256.158C336.259 254.4 333.393 252.459 331.228 250.69C330.072 249.746 329.192 248.91 328.58 248.181L328.562 254.5C328.712 255.05 331.629 258.353 339.294 262.771C340.378 263.396 341.444 263.975 342.475 264.493L342.539 265.759C341.491 265.23 340.4 264.636 339.294 264C336.245 262.242 333.379 260.301 331.214 258.535C328.705 256.484 327.489 254.957 327.492 253.864L327.517 246.086C327.517 246.065 327.517 246.043 327.517 246.022L327.539 238.591C327.539 238.559 327.539 238.527 327.539 238.498L327.56 231.171C327.557 231.125 327.557 231.085 327.56 231.05C327.56 231.025 327.56 230.996 327.56 230.971L327.571 230.978M357.891 236.658L323.273 216.696C321.462 215.652 319.988 216.492 319.985 218.572L319.87 258.299C319.863 260.379 321.326 262.91 323.137 263.954L357.755 283.915C359.566 284.959 361.04 284.119 361.044 282.039L361.158 242.312C361.165 240.232 359.698 237.698 357.891 236.658Z" fill="white"></path>
      </mask>
      <g mask="url(#mask14_3626_47680)">
        <path d="M361.051 285.917L319.752 262.102L319.888 214.701L361.186 238.52L361.051 285.917Z" fill="url(#paint14_linear_3626_47680)"></path>
      </g>
    </g>
    <path d="M328.591 239.127V240.65C329.199 241.382 330.083 242.215 331.235 243.159C333.4 244.928 336.27 246.869 339.315 248.627C342.36 250.386 345.234 251.751 347.402 252.48C348.555 252.866 349.435 253.052 350.05 253.031V251.515C349.836 251.88 346.887 251.758 339.319 247.398C331.657 242.98 328.741 239.678 328.587 239.127M327.513 238.491C327.513 238.52 327.513 238.552 327.513 238.584V238.491ZM351.124 252.105V252.284C351.131 252.23 351.135 252.173 351.135 252.112L351.124 252.105Z" fill="white"></path>
    <path d="M328.626 231.646C328.626 231.689 328.616 231.721 328.608 231.75V233.126C329.22 233.859 330.101 234.692 331.253 235.635C333.418 237.404 336.288 239.345 339.333 241.104C342.378 242.862 345.252 244.227 347.42 244.957C348.573 245.343 349.453 245.528 350.068 245.507V244.117C350.068 244.084 350.061 244.049 350.061 244.009C349.757 244.353 346.78 244.163 339.34 239.874C331.865 235.564 328.905 232.315 328.626 231.646ZM327.546 230.971L327.535 230.964C327.535 230.989 327.535 231.017 327.535 231.042C327.535 231.014 327.538 230.992 327.542 230.971M351.138 244.578C351.145 244.624 351.149 244.681 351.145 244.735C351.153 244.688 351.153 244.638 351.153 244.585L351.138 244.574" fill="white"></path>
    <path d="M328.569 246.654V248.174C329.177 248.906 330.061 249.739 331.214 250.683C333.378 252.452 336.248 254.393 339.294 256.151C340.278 256.719 341.251 257.248 342.196 257.731L342.142 256.469C341.215 255.994 340.26 255.472 339.297 254.918C332.566 251.036 328.766 247.498 328.565 246.647M327.492 246.008C327.492 246.029 327.492 246.05 327.492 246.072V246.008Z" fill="white"></path>
    <path d="M339.354 234.416C336.306 232.658 333.436 231.292 331.274 230.57C328.823 229.752 327.606 229.863 327.56 230.903C327.556 230.921 327.549 230.942 327.546 230.971C327.542 230.992 327.538 231.017 327.538 231.042C327.538 231.078 327.538 231.117 327.538 231.164L327.517 238.491V238.584L327.496 246.018V246.082L327.47 253.86C327.47 254.95 328.684 256.476 331.192 258.531C333.357 260.301 336.227 262.241 339.272 263.996C340.378 264.632 341.469 265.226 342.518 265.755L342.453 264.489C341.426 263.971 340.356 263.389 339.272 262.767C331.611 258.349 328.691 255.046 328.54 254.496L328.558 248.177V246.658L328.58 240.653V239.131L328.601 233.13V231.754C328.612 231.725 328.619 231.693 328.623 231.65C328.623 231.632 328.623 231.611 328.623 231.589C328.734 230.935 332.62 231.771 339.344 235.649C346.064 239.524 349.947 243.166 350.054 243.945C350.054 243.97 350.054 243.992 350.054 244.013C350.054 244.052 350.061 244.088 350.068 244.12V245.511L350.047 251.522V253.038L350.025 258.96L351.088 259.689L351.099 259.632L350.863 259.443L351.099 259.579L351.12 252.291V252.112L351.142 244.781C351.142 244.767 351.142 244.753 351.142 244.739C351.142 244.681 351.142 244.628 351.135 244.581C351.135 244.553 351.128 244.528 351.124 244.506C351.085 243.413 349.872 241.901 347.417 239.888C345.262 238.119 342.393 236.178 339.344 234.42" fill="white"></path>
    <path d="M348.372 267.07C347.198 266.395 346.232 264.761 346.2 263.385C346.171 261.988 347.127 261.384 348.326 262.038C348.347 262.048 348.369 262.063 348.39 262.073C349.567 262.753 350.53 264.386 350.559 265.758C350.587 267.156 349.639 267.76 348.437 267.106C348.415 267.095 348.394 267.081 348.372 267.07ZM348.404 257.931C348.347 257.899 348.293 257.867 348.236 257.838C347.936 257.674 347.635 257.538 347.349 257.434H347.338L346.898 258.717H346.887C346.629 258.674 346.39 258.664 346.153 258.678H346.143L344.862 257.281H344.847C344.371 257.42 343.96 257.688 343.62 258.06V258.078L344.25 259.872V259.886C344.132 260.097 344.035 260.322 343.963 260.579H343.953L342.643 260.415L342.632 260.422C342.597 260.733 342.579 261.069 342.586 261.423C342.593 261.777 342.625 262.131 342.675 262.499L342.686 262.517L344.017 263.778L344.028 263.793C344.11 264.136 344.221 264.479 344.354 264.822V264.836L343.785 265.976V265.994C344.15 266.749 344.586 267.47 345.08 268.15L345.094 268.16L346.343 268.142L346.357 268.15C346.594 268.418 346.844 268.675 347.105 268.911L347.116 268.925L347.621 270.716L347.631 270.734C347.868 270.905 348.111 271.063 348.358 271.206C348.415 271.238 348.469 271.27 348.526 271.298C348.83 271.463 349.124 271.595 349.413 271.702H349.424L349.864 270.419H349.875C350.129 270.459 350.372 270.469 350.609 270.459H350.619L351.897 271.852L351.911 271.86C352.384 271.709 352.799 271.449 353.139 271.077V271.059L352.509 269.265V269.25C352.627 269.04 352.724 268.811 352.799 268.553H352.809L354.116 268.721L354.126 268.714C354.166 268.4 354.183 268.071 354.176 267.717C354.169 267.363 354.137 267.002 354.083 266.641L354.073 266.623L352.741 265.358L352.731 265.344C352.645 265.004 352.537 264.661 352.405 264.318V264.304L352.974 263.164V263.146C352.609 262.392 352.176 261.662 351.679 260.991L351.664 260.98L350.415 260.998L350.405 260.991C350.161 260.715 349.914 260.458 349.657 260.229L349.646 260.215L349.141 258.424L349.131 258.406C348.895 258.235 348.655 258.078 348.408 257.938" fill="white"></path>
  </g>
  <path d="M496.938 267.37C486.912 276.685 474.981 285.381 461.48 293.219C385.71 337.199 269.45 348.655 172.184 321.723L171.228 321.459L170.753 322.624C170.685 322.788 170.62 322.949 170.552 323.113L170.058 324.282L171.282 324.622C176.163 325.969 180.998 327.206 185.646 328.296C216.413 335.505 248.913 339.165 282.243 339.165C315.565 339.165 348.025 335.505 378.717 328.292C410.515 320.826 439.036 309.846 463.48 295.657C477.06 287.775 489.062 279.062 499.15 269.765L499.973 269.007L497.758 266.609L496.935 267.374L496.938 267.37Z" fill="url(#paint15_linear_3626_47680)"></path>
  <path d="M503.716 262.717C501.852 259.825 497.994 258.989 495.099 260.851C492.204 262.713 491.367 266.566 493.231 269.458C495.095 272.349 498.953 273.186 501.848 271.323C504.743 269.461 505.58 265.608 503.716 262.717Z" fill="url(#paint16_linear_3626_47680)"></path>
  <path d="M152.965 42.5793L152.961 42.5838L152.965 42.5793Z" fill="url(#paint17_linear_3626_47680)"></path>
  <mask id="mask15_3626_47680" style="mask-type:luminance" maskUnits="userSpaceOnUse" x="228" y="119" width="151" height="107">
    <path d="M228.297 138.71L228.351 119.875L378.692 206.57L378.639 225.406L228.297 138.71Z" fill="white"></path>
  </mask>
  <g mask="url(#mask15_3626_47680)">
    <path d="M233.973 123.803C232.774 123.113 231.751 122.809 230.903 122.902C230.062 123.009 229.421 123.449 228.985 124.231C228.548 125.018 228.33 126.094 228.326 127.445C228.323 128.796 228.516 130.193 228.92 131.473C229.314 132.738 229.908 133.885 230.706 134.911C231.497 135.933 232.499 136.798 233.69 137.485C234.338 137.856 234.889 138.124 235.361 138.314C235.827 138.496 236.274 138.61 236.714 138.682V137.213C236.27 137.106 235.812 136.97 235.351 136.795C234.896 136.634 234.409 136.405 233.908 136.116C232.563 135.34 231.557 134.278 230.885 132.91C230.219 131.555 229.883 130.032 229.89 128.37C229.897 126.708 230.258 125.565 230.981 125.018C231.711 124.467 232.699 124.553 233.955 125.279C234.485 125.582 234.968 125.94 235.411 126.347C235.852 126.744 236.256 127.155 236.617 127.548L237.211 126.455C236.295 125.4 235.222 124.521 233.976 123.803" fill="black"></path>
    <path d="M242.49 141.18C241.591 140.662 240.94 139.933 240.529 139C240.128 138.067 239.924 137.002 239.927 135.812C239.931 134.622 240.131 133.799 240.539 133.356C240.947 132.906 241.602 132.945 242.497 133.463C243.391 133.982 244.046 134.697 244.465 135.622C244.876 136.534 245.084 137.595 245.08 138.785C245.08 139.976 244.862 140.798 244.447 141.262C244.025 141.713 243.377 141.695 242.49 141.18ZM242.529 132.091C241.266 131.362 240.264 131.233 239.534 131.723C238.804 132.205 238.439 133.281 238.435 134.95C238.435 136.065 238.607 137.12 238.95 138.103C239.301 139.093 239.777 139.965 240.378 140.719C240.987 141.484 241.677 142.084 242.457 142.535C243.713 143.26 244.715 143.371 245.453 142.885C246.19 142.388 246.569 141.316 246.573 139.643C246.573 138.528 246.401 137.481 246.057 136.505C245.714 135.537 245.238 134.672 244.629 133.907C244.021 133.149 243.323 132.545 242.529 132.087" fill="black"></path>
    <path d="M250.162 132.452L248.712 131.616L248.673 145.93L250.122 146.767L250.137 141.552C250.137 140.369 250.326 139.572 250.695 139.154C251.056 138.728 251.733 138.796 252.72 139.365C254.037 140.122 254.688 141.312 254.685 142.932L254.667 149.387L256.095 150.209L256.113 143.636C256.116 142.345 255.848 141.252 255.311 140.358C254.767 139.461 253.969 138.703 252.91 138.092C252.337 137.76 251.815 137.595 251.321 137.574C250.834 137.556 250.452 137.724 250.162 138.074L250.065 138.021C250.119 137.613 250.147 137.156 250.151 136.659L250.162 132.456" fill="black"></path>
    <path d="M259.702 146.238C259.777 145.376 260.024 144.808 260.421 144.529C260.818 144.251 261.366 144.311 262.056 144.712C262.79 145.137 263.327 145.705 263.663 146.434C264 147.171 264.175 147.964 264.178 148.818L259.702 146.238ZM262.074 143.364C261.301 142.917 260.618 142.735 260.027 142.828C259.444 142.914 258.986 143.261 258.661 143.868C258.335 144.476 258.17 145.326 258.167 146.431C258.163 147.535 258.346 148.611 258.696 149.583C259.047 150.555 259.544 151.417 260.178 152.171C260.808 152.932 261.552 153.554 262.389 154.037C262.99 154.383 263.513 154.626 263.949 154.777C264.39 154.92 264.833 155.005 265.281 155.045V153.593C264.823 153.554 264.379 153.468 263.946 153.336C263.513 153.204 263.019 152.979 262.461 152.657C261.584 152.153 260.904 151.463 260.418 150.584C259.934 149.712 259.68 148.697 259.666 147.539L265.689 151.013V150.016C265.696 149.097 265.549 148.218 265.256 147.357C264.969 146.506 264.554 145.734 264.01 145.048C263.459 144.351 262.815 143.789 262.071 143.364" fill="black"></path>
    <path d="M270.509 148.229C269.525 147.66 268.73 147.432 268.126 147.546C267.514 147.667 267.209 148.15 267.209 149.004C267.209 149.551 267.317 150.073 267.528 150.541C267.746 151.024 268.061 151.51 268.465 151.996C268.87 152.475 269.353 153.007 269.918 153.586C270.498 154.176 270.945 154.651 271.253 155.034C271.568 155.42 271.783 155.745 271.897 156.013C272.022 156.278 272.08 156.542 272.08 156.796C272.08 157.243 271.908 157.507 271.582 157.593C271.249 157.672 270.72 157.504 269.986 157.078C269.471 156.782 268.97 156.41 268.473 155.952C267.972 155.495 267.553 155.07 267.202 154.662V156.174C267.535 156.571 267.925 156.95 268.372 157.325C268.813 157.689 269.342 158.054 269.954 158.404C271.028 159.023 271.883 159.262 272.516 159.119C273.15 158.987 273.475 158.429 273.479 157.45C273.479 156.91 273.372 156.399 273.168 155.917C272.964 155.445 272.663 154.966 272.266 154.483C271.876 154.015 271.4 153.486 270.842 152.925C270.283 152.368 269.843 151.903 269.507 151.513C269.178 151.138 268.941 150.816 268.795 150.538C268.655 150.273 268.584 149.994 268.584 149.705C268.584 149.326 268.741 149.119 269.056 149.083C269.364 149.04 269.822 149.194 270.409 149.533C270.834 149.78 271.253 150.08 271.657 150.441C272.062 150.802 272.445 151.174 272.817 151.56L273.314 150.527C272.91 150.091 272.477 149.68 272.015 149.287C271.547 148.89 271.046 148.54 270.509 148.232" fill="black"></path>
    <path d="M276.914 152.106L275.465 151.27L275.436 161.364L276.886 162.2L276.914 152.106ZM276.22 147.918C275.977 147.778 275.773 147.742 275.608 147.817C275.443 147.893 275.365 148.107 275.365 148.479C275.365 148.85 275.443 149.151 275.604 149.412C275.766 149.683 275.973 149.876 276.213 150.016C276.428 150.137 276.624 150.176 276.796 150.098C276.964 150.026 277.054 149.815 277.057 149.454C277.061 149.093 276.971 148.772 276.803 148.504C276.635 148.236 276.435 148.039 276.224 147.914" fill="black"></path>
    <path d="M281.105 152.207L280.253 151.713L279.673 153.525L278.406 153.454V154.247L279.648 154.962L279.63 160.835C279.63 161.653 279.752 162.357 279.984 162.951C280.224 163.537 280.543 164.041 280.929 164.441C281.319 164.852 281.738 165.184 282.2 165.453C282.457 165.603 282.736 165.728 283.015 165.839C283.302 165.946 283.524 165.996 283.677 165.999V164.734C283.534 164.716 283.348 164.663 283.123 164.563C282.887 164.47 282.668 164.359 282.446 164.23C282.042 163.998 281.713 163.662 281.455 163.212C281.198 162.775 281.076 162.25 281.076 161.632L281.094 155.792L283.638 157.257V155.974L281.097 154.508L281.105 152.196" fill="black"></path>
    <path d="M292.266 160.96L290.706 160.059L288.902 164.759C288.745 165.184 288.598 165.606 288.458 166.031C288.319 166.464 288.204 166.807 288.147 167.093L288.079 167.054C288.015 166.603 287.911 166.103 287.782 165.581C287.657 165.052 287.514 164.487 287.345 163.876L285.456 157.032L283.921 156.145L287.435 168.326L286.966 169.391C286.78 169.824 286.529 170.12 286.225 170.267C285.914 170.417 285.51 170.346 285.012 170.056C284.823 169.945 284.644 169.834 284.475 169.713C284.307 169.591 284.161 169.481 284.042 169.388V170.703C284.178 170.817 284.347 170.957 284.547 171.096C284.744 171.243 284.973 171.393 285.238 171.546C286.089 172.04 286.762 172.136 287.242 171.847C287.728 171.568 288.129 171.039 288.448 170.26L292.266 160.956" fill="black"></path>
    <path d="M299.251 173.641L299.279 163.101L301.197 164.209C302.611 165.024 303.702 166.067 304.472 167.35C305.241 168.63 305.62 170.167 305.613 171.965C305.603 175.525 304.01 176.39 300.84 174.563L299.244 173.645M301.409 162.883L297.805 160.806L297.766 174.249L301.029 176.132C302.947 177.24 304.457 177.533 305.535 177.004C306.619 176.479 307.159 175.078 307.166 172.805C307.17 171.371 306.937 170.035 306.472 168.777C306.003 167.526 305.338 166.407 304.472 165.399C303.599 164.398 302.586 163.558 301.409 162.879" fill="black"></path>
    <path d="M311.85 181.215C311.382 180.943 310.999 180.596 310.698 180.153C310.398 179.717 310.251 179.22 310.255 178.656C310.255 178.016 310.462 177.633 310.884 177.53C311.31 177.422 312.069 177.655 313.164 178.237L314.459 178.934V179.839C314.456 180.818 314.202 181.401 313.701 181.583C313.207 181.762 312.588 181.644 311.854 181.218M312.756 172.608C312.183 172.276 311.639 172.047 311.11 171.911C310.587 171.779 310.129 171.725 309.746 171.743L310.183 173.237C310.552 173.248 310.934 173.291 311.353 173.373C311.765 173.459 312.208 173.637 312.663 173.898C313.243 174.234 313.693 174.652 314.008 175.164C314.33 175.671 314.484 176.343 314.481 177.187V177.794L312.985 176.983C311.55 176.207 310.491 175.893 309.8 176.043C309.106 176.193 308.759 176.768 308.755 177.773C308.752 178.777 309.016 179.706 309.542 180.5C310.061 181.283 310.723 181.908 311.525 182.369C312.251 182.787 312.835 182.987 313.26 182.973C313.686 182.959 314.094 182.777 314.477 182.448L314.545 182.487L314.821 184.074L315.873 184.682L315.891 177.812C315.891 176.629 315.64 175.621 315.125 174.785C314.613 173.948 313.819 173.219 312.752 172.604" fill="black"></path>
    <path d="M320.024 174.649L319.172 174.156L318.592 175.968L317.326 175.896V176.69L318.574 177.412L318.557 183.284C318.557 184.103 318.671 184.803 318.911 185.4C319.151 185.986 319.458 186.487 319.848 186.887C320.238 187.298 320.664 187.638 321.119 187.899C321.383 188.052 321.655 188.174 321.942 188.288C322.221 188.392 322.443 188.442 322.597 188.445V187.18C322.461 187.166 322.267 187.109 322.042 187.009C321.813 186.919 321.587 186.805 321.373 186.683C320.968 186.451 320.639 186.115 320.382 185.665C320.124 185.229 319.995 184.696 319.995 184.081L320.013 178.241L322.557 179.706V178.423L320.017 176.958L320.024 174.645" fill="black"></path>
    <path d="M326.654 189.75C326.182 189.478 325.803 189.131 325.502 188.688C325.202 188.252 325.048 187.752 325.051 187.183C325.051 186.544 325.27 186.168 325.688 186.061C326.114 185.954 326.873 186.186 327.961 186.765L329.263 187.466V188.37C329.26 189.349 329.006 189.932 328.505 190.114C328.011 190.293 327.392 190.175 326.658 189.75M327.553 181.136C326.987 180.811 326.443 180.578 325.914 180.443C325.391 180.31 324.933 180.257 324.55 180.275L324.987 181.769C325.348 181.772 325.738 181.822 326.157 181.904C326.569 181.99 327.012 182.169 327.467 182.43C328.046 182.766 328.497 183.184 328.812 183.695C329.127 184.199 329.288 184.875 329.285 185.718V186.326L327.789 185.514C326.354 184.739 325.295 184.424 324.604 184.574C323.91 184.724 323.563 185.3 323.559 186.304C323.556 187.309 323.82 188.238 324.346 189.031C324.869 189.814 325.527 190.44 326.329 190.901C327.055 191.319 327.639 191.519 328.064 191.505C328.49 191.49 328.898 191.308 329.281 190.979L329.345 191.019L329.621 192.606L330.673 193.213L330.691 186.344C330.691 185.16 330.44 184.153 329.925 183.316C329.41 182.48 328.619 181.751 327.546 181.132" fill="black"></path>
    <path d="M342.607 186.447C341.401 185.75 340.378 185.45 339.537 185.547C338.689 185.65 338.048 186.09 337.619 186.876C337.182 187.663 336.957 188.735 336.953 190.086C336.95 191.494 337.15 192.838 337.547 194.114C337.941 195.379 338.542 196.53 339.333 197.552C340.135 198.582 341.126 199.439 342.317 200.126C342.965 200.497 343.523 200.769 343.989 200.955C344.454 201.137 344.908 201.259 345.341 201.323V199.854C344.897 199.747 344.439 199.611 343.985 199.44C343.52 199.275 343.044 199.05 342.536 198.757C341.19 197.981 340.185 196.92 339.519 195.554C338.846 194.193 338.51 192.674 338.517 191.012C338.524 189.35 338.893 188.209 339.616 187.663C340.339 187.109 341.333 187.198 342.589 187.923C343.112 188.224 343.595 188.581 344.039 188.985C344.479 189.382 344.883 189.793 345.245 190.186L345.846 189.096C344.93 188.041 343.849 187.159 342.611 186.444" fill="black"></path>
    <path d="M349.023 189.46L347.581 188.631L347.542 202.942L348.98 203.775L349.023 189.46Z" fill="black"></path>
    <path d="M355.193 206.173C354.294 205.655 353.643 204.926 353.232 203.993C352.831 203.06 352.627 201.995 352.63 200.805C352.634 199.614 352.834 198.792 353.242 198.349C353.65 197.899 354.305 197.938 355.2 198.456C356.094 198.975 356.749 199.689 357.168 200.615C357.579 201.527 357.78 202.585 357.776 203.775C357.776 204.965 357.565 205.791 357.15 206.255C356.728 206.706 356.08 206.688 355.193 206.173ZM355.232 197.084C353.969 196.355 352.967 196.226 352.237 196.716C351.507 197.198 351.142 198.274 351.138 199.943C351.138 201.058 351.303 202.109 351.653 203.096C352.004 204.086 352.48 204.958 353.081 205.712C353.69 206.477 354.38 207.077 355.16 207.528C356.416 208.253 357.411 208.36 358.156 207.878C358.893 207.381 359.265 206.302 359.268 204.633C359.268 203.517 359.104 202.477 358.76 201.502C358.417 200.533 357.941 199.668 357.332 198.903C356.724 198.145 356.019 197.538 355.232 197.084Z" fill="black"></path>
    <path d="M368.755 205.065L367.313 204.232L367.298 209.49C367.298 210.673 367.102 211.463 366.726 211.874C366.343 212.285 365.663 212.21 364.693 211.649C363.391 210.898 362.747 209.722 362.75 208.11L362.768 201.613L361.305 200.769L361.287 207.378C361.283 208.661 361.544 209.751 362.081 210.641C362.618 211.535 363.416 212.289 364.475 212.9C365.04 213.225 365.577 213.411 366.085 213.457C366.586 213.5 366.984 213.343 367.266 212.978L367.331 213.018L367.542 214.472L368.726 215.155L368.755 205.062" fill="black"></path>
    <path d="M374.699 217.421C373.911 216.967 373.325 216.292 372.945 215.402C372.559 214.519 372.362 213.468 372.366 212.26C372.369 211.052 372.57 210.23 372.963 209.747C373.346 209.258 373.937 209.243 374.709 209.69C375.686 210.255 376.348 210.973 376.706 211.849C377.071 212.735 377.247 213.801 377.243 215.059V215.355C377.239 216.538 377.046 217.314 376.667 217.679C376.291 218.043 375.636 217.961 374.702 217.425M378.696 206.574L377.254 205.741L377.243 209.776C377.243 209.962 377.25 210.219 377.272 210.552C377.293 210.884 377.315 211.141 377.336 211.316L377.239 211.263C376.967 210.691 376.617 210.133 376.184 209.597C375.751 209.061 375.2 208.6 374.516 208.203C373.428 207.574 372.545 207.506 371.879 208.01C371.213 208.514 370.881 209.633 370.873 211.363C370.866 213.093 371.195 214.59 371.847 215.849C372.498 217.096 373.371 218.039 374.47 218.669C375.16 219.069 375.726 219.24 376.162 219.187C376.606 219.137 376.95 218.972 377.218 218.704L377.282 218.744L377.494 220.216L378.657 220.885L378.696 206.57" fill="black"></path>
  </g>
  <defs>
    <linearGradient id="paint0_linear_3626_47680" x1="428.229" y1="55.8075" x2="563.165" y2="203.185" gradientUnits="userSpaceOnUse">
      <stop stop-color="#5EC200"></stop>
      <stop offset="1" stop-color="#8ED44C"></stop>
    </linearGradient>
    <linearGradient id="paint1_linear_3626_47680" x1="107.11" y1="185.178" x2="499.887" y2="185.178" gradientUnits="userSpaceOnUse">
      <stop stop-color="#B2B7D8"></stop>
      <stop offset="0.16" stop-color="#C4C7E0"></stop>
      <stop offset="0.38" stop-color="#D5D8E9"></stop>
      <stop offset="0.53" stop-color="#DCDEEC"></stop>
      <stop offset="1" stop-color="#FFFFF7"></stop>
    </linearGradient>
    <linearGradient id="paint2_linear_3626_47680" x1="167.764" y1="36.6534" x2="247.539" y2="36.6534" gradientUnits="userSpaceOnUse">
      <stop stop-color="#5EC200"></stop>
      <stop offset="0.41" stop-color="#7BCB1D"></stop>
      <stop offset="1" stop-color="#A2D843"></stop>
    </linearGradient>
    <linearGradient id="paint3_linear_3626_47680" x1="128.369" y1="79.3076" x2="128.369" y2="53.9487" gradientUnits="userSpaceOnUse">
      <stop stop-color="#5EC200"></stop>
      <stop offset="0.41" stop-color="#7BCB1D"></stop>
      <stop offset="1" stop-color="#A2D843"></stop>
    </linearGradient>
    <linearGradient id="paint4_linear_3626_47680" x1="301.931" y1="6.72668" x2="449.215" y2="215.274" gradientUnits="userSpaceOnUse">
      <stop stop-color="#5EC200"></stop>
      <stop offset="0.41" stop-color="#7BCB1D"></stop>
      <stop offset="1" stop-color="#A2D843"></stop>
    </linearGradient>
    <linearGradient id="paint5_linear_3626_47680" x1="254.474" y1="33.6902" x2="254.524" y2="33.7618" gradientUnits="userSpaceOnUse">
      <stop stop-color="#5EC200"></stop>
      <stop offset="0.41" stop-color="#7BCB1D"></stop>
      <stop offset="1" stop-color="#A2D843"></stop>
    </linearGradient>
    <linearGradient id="paint6_linear_3626_47680" x1="89.3752" y1="195.05" x2="482.149" y2="195.05" gradientUnits="userSpaceOnUse">
      <stop stop-color="#EDEEF7"></stop>
      <stop offset="1" stop-color="#F1F2F9"></stop>
    </linearGradient>
    <linearGradient id="paint7_linear_3626_47680" x1="53.9737" y1="83.5823" x2="43.9456" y2="236.38" gradientUnits="userSpaceOnUse">
      <stop stop-color="#5EC200"></stop>
      <stop offset="1" stop-color="#8ED44C"></stop>
    </linearGradient>
    <linearGradient id="paint8_linear_3626_47680" x1="51.7944" y1="261.026" x2="64.2652" y2="261.026" gradientUnits="userSpaceOnUse">
      <stop stop-color="#5EC200"></stop>
      <stop offset="1" stop-color="#8ED44C"></stop>
    </linearGradient>
    <linearGradient id="paint9_linear_3626_47680" x1="468.407" y1="219.827" x2="468.407" y2="369.846" gradientUnits="userSpaceOnUse">
      <stop stop-color="#5EC200"></stop>
      <stop offset="0.41" stop-color="#7BCB1D"></stop>
      <stop offset="1" stop-color="#A2D843"></stop>
    </linearGradient>
    <linearGradient id="paint10_linear_3626_47680" x1="150.849" y1="154.312" x2="192.284" y2="154.312" gradientUnits="userSpaceOnUse">
      <stop stop-color="#5EC200"></stop>
      <stop offset="1" stop-color="#86D140"></stop>
    </linearGradient>
    <linearGradient id="paint11_linear_3626_47680" x1="261.552" y1="217.918" x2="302.922" y2="217.918" gradientUnits="userSpaceOnUse">
      <stop stop-color="#39B3E9"></stop>
      <stop offset="1" stop-color="#7BC8EF"></stop>
    </linearGradient>
    <linearGradient id="paint12_linear_3626_47680" x1="206.462" y1="186.808" x2="247.893" y2="186.808" gradientUnits="userSpaceOnUse">
      <stop stop-color="#00733D"></stop>
      <stop offset="1" stop-color="#459972"></stop>
    </linearGradient>
    <linearGradient id="paint13_linear_3626_47680" x1="378.202" y1="284.265" x2="419.637" y2="284.265" gradientUnits="userSpaceOnUse">
      <stop stop-color="#FF3C00"></stop>
      <stop offset="1" stop-color="#FF8E00"></stop>
    </linearGradient>
    <linearGradient id="paint14_linear_3626_47680" x1="319.752" y1="250.311" x2="361.186" y2="250.311" gradientUnits="userSpaceOnUse">
      <stop stop-color="#FFBE00"></stop>
      <stop offset="1" stop-color="#FFD74A"></stop>
    </linearGradient>
    <linearGradient id="paint15_linear_3626_47680" x1="170.058" y1="302.884" x2="499.976" y2="302.884" gradientUnits="userSpaceOnUse">
      <stop stop-color="#5EC200"></stop>
      <stop offset="1" stop-color="#8ED44C"></stop>
    </linearGradient>
    <linearGradient id="paint16_linear_3626_47680" x1="492.236" y1="266.087" x2="504.711" y2="266.087" gradientUnits="userSpaceOnUse">
      <stop stop-color="#5EC200"></stop>
      <stop offset="1" stop-color="#8ED44C"></stop>
    </linearGradient>
    <linearGradient id="paint17_linear_3626_47680" x1="152.961" y1="42.5838" x2="152.961" y2="42.5793" gradientUnits="userSpaceOnUse">
      <stop offset="0.15" stop-color="#204FB0"></stop>
      <stop offset="0.72" stop-color="#5EA9D2"></stop>
      <stop offset="1" stop-color="#7AD0E1"></stop>
    </linearGradient>
  </defs>
</svg>
