<?xml version="1.0" encoding="UTF-8"?>
<svg xmlns="http://www.w3.org/2000/svg" width="53" height="60" viewBox="0 0 53 60" fill="none">
  <path d="M49.4552 60H4.39801C2.46245 60 0.888885 58.4614 0.888885 56.5687V27.6884C0.888885 25.7958 2.46245 24.2572 4.39801 24.2572H10.3525V16.2894C10.3525 7.31038 17.8214 0 27.0116 0C36.2018 0 43.6707 7.31038 43.6707 16.2894V24.2572H49.4552C51.3908 24.2572 52.9644 25.7958 52.9644 27.6884V56.5687C52.9644 58.4614 51.3908 60 49.4552 60ZM4.39801 26.4243C3.6888 26.4243 3.10518 26.9877 3.10518 27.6884V56.5687C3.10518 57.2622 3.68141 57.8329 4.39801 57.8329H49.4626C50.1718 57.8329 50.7555 57.2694 50.7555 56.5687V27.6884C50.7555 26.9949 50.1792 26.4243 49.4626 26.4243H42.5699C41.9568 26.4243 41.4618 25.9403 41.4618 25.3407V16.2894C41.4618 8.50229 34.9828 2.16711 27.019 2.16711C19.0551 2.16711 12.5687 8.50229 12.5687 16.2894V25.3407C12.5687 25.9403 12.0738 26.4243 11.4606 26.4243H4.39801ZM35.5074 26.4243H18.538C17.9248 26.4243 17.415 25.9403 17.415 25.3407V16.2605C17.415 11.0811 21.722 6.86973 27.019 6.86973C32.3159 6.86973 36.6229 11.0811 36.6229 16.2605V25.3407C36.6229 25.9403 36.1279 26.4243 35.5148 26.4243H35.5074ZM19.6239 24.2572H34.3992V16.2605C34.3992 12.2803 31.0896 9.03684 27.0116 9.03684C22.9336 9.03684 19.6239 12.2731 19.6239 16.2605V24.2572Z" fill="#338F64"></path>
  <path d="M31.8948 38.4301C31.8948 35.6417 29.4938 33.4024 26.6052 33.583C24.1821 33.7274 22.1874 35.6273 21.9732 37.9966C21.7959 40.0193 22.8819 41.8107 24.5441 42.6993V47.5969C24.5441 48.1315 24.9874 48.5649 25.534 48.5649H28.3044C28.8511 48.5649 29.2943 48.1315 29.2943 47.5969V42.6993C30.8384 41.8758 31.8874 40.2721 31.8874 38.4301H31.8948Z" fill="#338F64"></path>
</svg>
