<?xml version="1.0" encoding="UTF-8"?>
<svg xmlns="http://www.w3.org/2000/svg" width="59" height="61" viewBox="0 0 59 61" fill="none">
  <path d="M53.8747 60.0001C53.8393 60.0001 53.7967 60.0001 53.7612 60.0001C52.7754 59.9718 51.8675 59.5617 51.1937 58.8547L35.8101 42.5785C35.4058 42.1542 35.4271 41.4825 35.8526 41.0795L40.9309 36.314C41.1366 36.1231 41.4061 36.01 41.6898 36.0241C41.9735 36.0312 42.2359 36.1514 42.4345 36.3564L57.8182 52.6327C58.4919 53.3397 58.8395 54.273 58.8111 55.2558C58.7827 56.2386 58.3714 57.1436 57.6621 57.8153L56.3855 59.0102C55.6975 59.6536 54.8109 60.0072 53.8676 60.0072L53.8747 60.0001ZM38.0939 41.8926L52.747 57.3982C53.0307 57.6951 53.4137 57.8648 53.8251 57.879C54.2364 57.8931 54.6336 57.7446 54.9315 57.4618L56.2082 56.2669C56.506 55.9841 56.6763 55.6023 56.6904 55.1922C56.7046 54.775 56.5557 54.3861 56.272 54.0892L41.6189 38.5836L38.0939 41.8926Z" fill="#FF8E00"></path>
  <path d="M22.2134 42.2463C21.9936 42.2463 21.7808 42.2463 21.5609 42.2392C15.9011 42.0695 10.6455 39.7151 6.76594 35.6071C2.88634 31.4992 0.8366 26.1256 1.00682 20.4905C1.17704 14.8482 3.53885 9.609 7.6596 5.74146C16.1635 -2.24817 29.6038 -1.84516 37.6184 6.63234C41.498 10.7403 43.5477 16.1068 43.3775 21.749C43.2073 27.3912 40.8455 32.6304 36.7247 36.498C32.76 40.2171 27.6321 42.2463 22.2064 42.2463H22.2134ZM22.1922 2.12138C17.504 2.12138 12.8017 3.83243 9.12775 7.28282C1.46783 14.4664 1.10612 26.5216 8.31211 34.1506C11.8016 37.8485 16.5323 39.9625 21.6248 40.1181C26.7243 40.2666 31.5614 38.4353 35.2708 34.9566C38.9802 31.478 41.1008 26.762 41.2568 21.6854C41.4058 16.6088 39.5688 11.7796 36.0793 8.08178C32.3345 4.11525 27.2704 2.11431 22.1922 2.11431V2.12138Z" fill="#FF8E00"></path>
  <path d="M14.7027 33.1534C14.1141 33.1534 13.6389 32.6796 13.6389 32.0928V19.5073C13.6389 18.9205 14.1141 18.4468 14.7027 18.4468C15.2914 18.4468 15.7666 18.9205 15.7666 19.5073V32.0928C15.7666 32.6796 15.2914 33.1534 14.7027 33.1534Z" fill="#FF8E00"></path>
  <path d="M21.7527 33.1534C21.164 33.1534 20.6888 32.6797 20.6888 32.0929V10.2239C20.6888 9.63705 21.164 9.16333 21.7527 9.16333C22.3414 9.16333 22.8166 9.63705 22.8166 10.2239V32.0858C22.8166 32.6726 22.3414 33.1464 21.7527 33.1464V33.1534Z" fill="#FF8E00"></path>
  <path d="M28.8098 33.1535C28.2211 33.1535 27.7459 32.6798 27.7459 32.0929V14.2329C27.7459 13.6461 28.2211 13.1724 28.8098 13.1724C29.3984 13.1724 29.8736 13.6461 29.8736 14.2329V32.0929C29.8736 32.6798 29.3984 33.1535 28.8098 33.1535Z" fill="#FF8E00"></path>
</svg>
