<?xml version="1.0" encoding="UTF-8"?>
<svg xmlns="http://www.w3.org/2000/svg" width="58" height="60" viewBox="0 0 58 60" fill="none">
  <g clip-path="url(#clip0_1572_26150)">
    <g clip-path="url(#clip1_1572_26150)">
      <path d="M25.5835 27.0268C16.0787 27.0268 0 25.6942 0 20.6987H2.32015C2.49803 21.5326 8.77791 24.6888 25.5835 24.6888C42.3892 24.6888 48.6613 21.5404 48.8469 20.6909H51.1671C51.1671 25.6942 35.0884 27.0268 25.5835 27.0268Z" fill="#FFC000"></path>
      <path d="M25.5835 12.7107C16.0787 12.7107 0 11.378 0 6.39036H2.32015C2.49803 7.22424 8.78564 10.3805 25.5835 10.3805C42.3814 10.3805 48.6613 7.23203 48.8469 6.38257H51.1671C51.1671 11.3858 35.0884 12.7185 25.5835 12.7185V12.7107Z" fill="#FFC000"></path>
      <path d="M25.5835 41.3352C16.0787 41.3352 0 40.0025 0 35.0071H2.32015C2.62177 36.3943 10.8738 38.9972 25.5835 38.9972C27.6717 38.9972 29.7443 38.9427 31.7397 38.8336L31.8712 41.1715C29.8294 41.2884 27.7181 41.343 25.5835 41.343V41.3352Z" fill="#FFC000"></path>
      <path d="M25.5835 56.2437C16.0786 56.2437 -7.96232e-05 54.911 -7.96232e-05 49.9156V6.76452C-0.0155473 6.53851 0.0231219 6.35927 0.0540573 6.24237C0.309274 1.31705 16.1714 0 25.5757 0C34.9801 0 50.8731 1.32485 51.1051 6.25796C51.1283 6.37485 51.167 6.5541 51.1438 6.76452V34.898H50.6334L51.1438 34.9994L51.1206 35.124L48.8237 34.898V6.67879C48.8082 6.59306 48.7927 6.48396 48.7927 6.35927C48.553 4.99545 40.1463 2.33017 25.5835 2.33017C11.0206 2.33017 2.60622 5.00325 2.36648 6.36706C2.36648 6.49955 2.35101 6.60865 2.32781 6.69438V49.9467C2.65263 50.8274 8.98664 53.9057 25.5757 53.9057C27.9191 53.9057 30.2315 53.8356 32.4666 53.6953L32.6135 56.0255C30.332 56.1657 27.9655 56.2437 25.5835 56.2437Z" fill="#FFC000"></path>
      <path d="M57.8104 47.0087C57.795 46.3463 57.7254 45.6994 57.6016 45.0682C57.6016 45.0604 57.5939 45.0448 57.5784 45.0448L54.6937 44.1018C54.6937 44.1018 54.6782 44.094 54.6705 44.0862C54.4849 43.5329 54.2451 43.003 53.959 42.4964C53.959 42.4886 53.959 42.4808 53.959 42.4653L55.1809 39.6753C55.1809 39.6753 55.1809 39.6519 55.1809 39.6441C54.3921 38.6076 53.4486 37.7036 52.3736 36.9632C52.3658 36.9632 52.3504 36.9632 52.3426 36.9632L49.6435 38.3582C49.6435 38.3582 49.628 38.3582 49.6126 38.3582C49.0944 38.1011 48.553 37.8828 47.9885 37.727C47.9807 37.727 47.973 37.7192 47.9653 37.7114L46.8671 34.8591C46.8671 34.8591 46.8516 34.8435 46.8439 34.8357C46.2097 34.7578 45.5678 34.7266 44.9104 34.7422C44.253 34.7578 43.6111 34.8279 42.9847 34.9448C42.9769 34.9448 42.9615 34.9526 42.9615 34.9682L42.0257 37.8751C42.0257 37.8751 42.0179 37.8906 42.0102 37.8906C41.4611 38.0777 40.9352 38.3193 40.4325 38.6076C40.4248 38.6076 40.417 38.6076 40.4016 38.6076L37.6251 37.3685C37.6251 37.3685 37.6019 37.3685 37.5942 37.3685C36.5656 38.1712 35.6685 39.122 34.9415 40.2052C34.9415 40.213 34.9415 40.2286 34.9415 40.2364L36.3181 42.9562C36.3181 42.9562 36.3181 42.9718 36.3181 42.9874C36.0629 43.5096 35.8541 44.0551 35.6994 44.6162C35.6994 44.624 35.6917 44.6318 35.6839 44.6396L32.8533 45.7462C32.8533 45.7462 32.8379 45.7618 32.8301 45.7696C32.7528 46.4086 32.7141 47.0555 32.7373 47.7179C32.7528 48.3803 32.8224 49.0194 32.9384 49.6584C32.9384 49.6662 32.9462 49.6818 32.9616 49.6818L35.8463 50.617C35.8463 50.617 35.8618 50.6248 35.8695 50.6326C36.0552 51.1859 36.2949 51.7236 36.5811 52.2302C36.5811 52.238 36.5811 52.2457 36.5811 52.2613L35.3591 55.0513C35.3591 55.0513 35.3591 55.0747 35.3591 55.0825C36.148 56.119 37.0992 57.0152 38.1665 57.7634C38.1742 57.7634 38.1897 57.7634 38.1974 57.7634L40.8965 56.3684C40.8965 56.3684 40.912 56.3684 40.9275 56.3684C41.4456 56.6177 41.987 56.836 42.5438 56.9996C42.5516 56.9996 42.5593 57.0074 42.567 57.0152L43.6653 59.8675C43.6653 59.8675 43.6807 59.8831 43.6885 59.8909C44.3149 59.9688 44.9645 60 45.6219 59.9844C46.2793 59.9688 46.9212 59.8987 47.5476 59.7818C47.5554 59.7818 47.5708 59.774 47.5708 59.7584L48.5066 56.8515C48.5066 56.8515 48.5144 56.836 48.5221 56.836C49.0712 56.6411 49.6048 56.3995 50.1075 56.119C50.1153 56.119 50.123 56.119 50.1307 56.119L52.8995 57.3581C52.8995 57.3581 52.9227 57.3581 52.9304 57.3581C53.959 56.5554 54.8484 55.6046 55.5831 54.5214C55.5831 54.5136 55.5831 54.498 55.5831 54.4902L54.2065 51.7704C54.2065 51.7704 54.2065 51.7548 54.2065 51.7392C54.4617 51.217 54.6705 50.6637 54.8252 50.1026C54.8252 50.0948 54.8329 50.087 54.8407 50.0792L57.6712 48.9804C57.6712 48.9804 57.6867 48.9648 57.6944 48.957C57.7795 48.3102 57.8104 47.6711 57.7872 47.0087H57.8104ZM45.4131 52.1133C42.8145 52.1834 40.6336 50.126 40.564 47.4997C40.4944 44.8734 42.5516 42.6835 45.1501 42.6133C47.7565 42.5432 49.9297 44.6084 49.9993 47.2347C50.0689 49.861 48.0194 52.0431 45.4131 52.1133Z" fill="#FFC000"></path>
    </g>
  </g>
  <defs>
    <clipPath id="clip0_1572_26150">
      <rect width="58" height="60" fill="white"></rect>
    </clipPath>
    <clipPath id="clip1_1572_26150">
      <rect width="57.8182" height="60" fill="white"></rect>
    </clipPath>
  </defs>
</svg>
