<?xml version="1.0" encoding="UTF-8"?>
<svg xmlns="http://www.w3.org/2000/svg" width="55" height="60" viewBox="0 0 55 60" fill="none">
  <g clip-path="url(#clip0_1572_26130)">
    <path d="M27.1669 59.9997C23.6337 59.8337 0.474266 49.5729 1.16153e-05 9.65981C-0.0157969 8.37128 0.932713 7.24875 2.2053 7.05112C4.54495 6.68748 9.34283 5.86535 15.192 4.37127C21.4521 2.77444 24.93 0.987875 26.1315 0.292223C26.8033 -0.095129 27.6412 -0.095129 28.313 0.292223C29.5145 0.987875 32.9923 2.77444 39.2525 4.37127C45.0621 5.84954 49.8837 6.68748 52.2392 7.05112C53.5039 7.24875 54.4524 8.36337 54.4445 9.65191C54.3101 21.7626 52.0021 38.6638 41.7581 50.4582C35.6482 57.5017 29.0481 59.9207 27.3329 60.0076H27.1669V59.9997ZM27.2222 2.39499C25.8548 3.1776 22.1714 5.03531 15.7769 6.66377C9.82499 8.18155 4.94807 9.0195 2.56099 9.39104C2.45033 9.40685 2.36338 9.50962 2.36338 9.62819C2.85344 50.4424 26.9851 57.6045 27.2301 57.6282H27.2776C27.4594 57.6124 51.6068 51.7152 52.0732 9.62029C52.0732 9.50171 51.9941 9.40685 51.8756 9.39104C49.4727 9.0195 44.5642 8.17365 38.6676 6.66377C32.273 5.03531 28.5897 3.16969 27.2222 2.39499Z" fill="url(#paint0_linear_1572_26130)"></path>
    <path d="M43.1888 23.423L27.2222 39.3914C26.3607 40.2531 24.9537 40.2531 24.0922 39.3914L14.5122 29.8104C13.6665 28.9329 13.6902 27.5337 14.5675 26.6799C15.4291 25.8499 16.7886 25.8499 17.6423 26.6799L25.6572 34.6957L40.0587 20.3005C40.9282 19.4467 42.3352 19.4625 43.1888 20.3321C44.0346 21.1938 44.0346 22.5693 43.1888 23.4309V23.423Z" fill="url(#paint1_linear_1572_26130)"></path>
  </g>
  <defs>
    <linearGradient id="paint0_linear_1572_26130" x1="-1.26467" y1="29.9997" x2="63.9216" y2="29.9997" gradientUnits="userSpaceOnUse">
      <stop stop-color="#5EC200"></stop>
      <stop offset="1" stop-color="#459972"></stop>
    </linearGradient>
    <linearGradient id="paint1_linear_1572_26130" x1="-1.26466" y1="29.8499" x2="63.9217" y2="29.8499" gradientUnits="userSpaceOnUse">
      <stop stop-color="#5EC200"></stop>
      <stop offset="1" stop-color="#459972"></stop>
    </linearGradient>
    <clipPath id="clip0_1572_26130">
      <rect width="54.4444" height="60" fill="white"></rect>
    </clipPath>
  </defs>
</svg>
