<?xml version="1.0" encoding="UTF-8"?>
<svg xmlns="http://www.w3.org/2000/svg" width="80" height="60" viewBox="0 0 80 60" fill="none">
  <path d="M76.3066 19.3231L56.2878 0.316419C55.9507 -0.00010165 55.468 -0.0850219 55.0467 0.0925386C54.6253 0.277819 54.3495 0.6947 54.3495 1.1579V9.14812H39.2492C38.6133 9.14812 38.1 9.66536 38.1 10.3061C38.1 10.9469 38.6133 11.4641 39.2492 11.4641H55.4987C56.1346 11.4641 56.6479 10.9469 56.6479 10.3061V3.83675L73.8473 20.1569L56.6479 36.477V30.0076C56.6479 29.3669 56.1346 28.8496 55.4987 28.8496H41.0113C40.927 28.8342 40.8427 28.8187 40.7508 28.8187H25.6505V20.8285C25.6505 20.3653 25.3747 19.9484 24.9533 19.7632C24.532 19.5779 24.0417 19.6628 23.7122 19.987L3.69341 38.9937C3.46358 39.2099 3.33334 39.5187 3.33334 39.8352C3.33334 40.1517 3.46358 40.4605 3.69341 40.6767L23.7122 59.6834C23.9267 59.8918 24.2102 59.9999 24.5013 59.9999C24.6546 59.9999 24.8078 59.969 24.9533 59.9073C25.3747 59.722 25.6505 59.3051 25.6505 58.8419V50.8517H40.7508C41.3867 50.8517 41.9 50.3344 41.9 49.6937C41.9 49.0529 41.3867 48.5357 40.7508 48.5357H24.5013C23.8654 48.5357 23.3521 49.0529 23.3521 49.6937V56.163L6.16033 39.8352L23.3598 23.5151V29.9845C23.3598 30.6252 23.8731 31.1425 24.509 31.1425H38.9964C39.0807 31.1579 39.1649 31.1733 39.2569 31.1733H54.3572V39.1636C54.3572 39.6268 54.633 40.0436 55.0543 40.2289C55.1999 40.2907 55.3531 40.3216 55.5063 40.3216C55.7975 40.3216 56.0809 40.2135 56.2954 40.005L76.3143 20.9984C76.5441 20.7822 76.6743 20.4734 76.6743 20.1569C76.6743 19.8404 76.5441 19.5316 76.3143 19.3154L76.3066 19.3231Z" fill="url(#paint0_linear_1572_26142)"></path>
  <path d="M25.2445 16.6212H55.1386C55.7745 16.6212 56.2878 16.1039 56.2878 15.4632C56.2878 14.8224 55.7745 14.3052 55.1386 14.3052H25.2445C24.6086 14.3052 24.0953 14.8224 24.0953 15.4632C24.0953 16.1039 24.6086 16.6212 25.2445 16.6212Z" fill="url(#paint1_linear_1572_26142)"></path>
  <path d="M55.1386 43.0623H25.2445C24.6086 43.0623 24.0953 43.5795 24.0953 44.2203C24.0953 44.861 24.6086 45.3783 25.2445 45.3783H55.1386C55.7745 45.3783 56.2878 44.861 56.2878 44.2203C56.2878 43.5795 55.7745 43.0623 55.1386 43.0623Z" fill="url(#paint2_linear_1572_26142)"></path>
  <defs>
    <linearGradient id="paint0_linear_1572_26142" x1="-7.04764" y1="29.9999" x2="72.6062" y2="29.9999" gradientUnits="userSpaceOnUse">
      <stop stop-color="#376BC3"></stop>
      <stop offset="1" stop-color="#57B3EA"></stop>
    </linearGradient>
    <linearGradient id="paint1_linear_1572_26142" x1="3.33333" y1="15.4632" x2="72.6062" y2="15.4632" gradientUnits="userSpaceOnUse">
      <stop stop-color="#376BC3"></stop>
      <stop offset="1" stop-color="#57B3EA"></stop>
    </linearGradient>
    <linearGradient id="paint2_linear_1572_26142" x1="3.33333" y1="44.2203" x2="72.6062" y2="44.2203" gradientUnits="userSpaceOnUse">
      <stop stop-color="#376BC3"></stop>
      <stop offset="1" stop-color="#57B3EA"></stop>
    </linearGradient>
  </defs>
</svg>
